Coordinates
version=1
nRows=15
nColumns=42
inDegrees=yes

Units are S.I. units (second, meters, Newtons, ...)
If the header above contains a line with 'inDegrees', this indicates whether rotational values are in degrees (yes) or radians (no).

endheader
time	pelvis_tilt	pelvis_list	pelvis_rotation	pelvis_tx	pelvis_ty	pelvis_tz	hip_flexion_r	hip_adduction_r	hip_rotation_r	knee_angle_r	knee_adduction_r	knee_angle_r_beta	ankle_angle_r	subtalar_angle_r	mtp_angle_r	hip_flexion_l	hip_adduction_l	hip_rotation_l	knee_angle_l	knee_adduction_l	knee_angle_l_beta	ankle_angle_l	subtalar_angle_l	mtp_angle_l	lumbar_extension	lumbar_bending	lumbar_rotation	arm_flex_r	arm_add_r	arm_rot_r	elbow_flex_r	pro_sup_r	wrist_flex_r	wrist_dev_r	arm_flex_l	arm_add_l	arm_rot_l	elbow_flex_l	pro_sup_l	wrist_flex_l	wrist_dev_l
      2.32000000	     13.33239280	      1.70217996	      2.68125421	     -0.50942447	      0.91312958	     -0.00548065	      6.52560785	    -11.88889715	    -21.59572501	     20.85531419	      9.53022973	      0.36399390	      6.64679962	     29.74717042	     -7.51265493	    -25.14065997	      3.03533003	      5.95329700	     19.84615815	     -3.17246938	      0.34638080	     16.82536622	      3.88241477	     -7.51265493	    -31.08647914	     -0.47997703	     -5.37957266	    -16.66602911	    -13.83293119	      6.50401678	     39.61726497	     90.00000001	      0.00000000	      0.00000000	     30.06596351	    -15.87508600	    -17.83308411	     46.18839513	     90.00000001	      0.00000000	      0.00000000
      2.33000000	     13.69171469	      1.56289365	      2.63273805	     -0.49966254	      0.91327969	     -0.00403006	      5.89406665	    -11.63434499	    -20.84593842	     21.66302628	      9.51809627	      0.37809113	      6.57844822	     29.65377402	     -7.51259836	    -25.78070764	      2.72863907	      6.14561244	     20.63422800	     -3.01525320	      0.36013522	     16.37387982	      3.89779205	     -7.51259836	    -31.20490488	     -0.19871577	     -5.17498544	    -16.07670507	    -13.88692207	      6.43849619	     39.30360616	     90.00000001	      0.00000000	      0.00000000	     29.53770640	    -15.99602991	    -17.97877927	     46.72249530	     90.00000001	      0.00000000	      0.00000000
      2.34000000	     14.06283772	      1.29484156	      2.43511723	     -0.48964757	      0.91364363	     -0.00198398	      5.27146652	    -11.11706626	    -20.19939194	     22.49941906	      9.37230535	      0.39268894	      6.86659068	     28.92410722	     -7.51242564	    -26.13507204	      2.20982522	      5.52621955	     21.97940195	     -2.67055408	      0.38361293	     15.29458454	      3.46328168	     -7.51242564	    -31.33796647	      0.09005597	     -5.00398234	    -15.08277197	    -13.82814458	      6.33544660	     38.25816816	     90.00000001	      0.00000000	      0.00000000	     28.28558812	    -16.26463991	    -18.28386460	     48.57976801	     90.00000001	      0.00000000	      0.00000000
      2.35000000	     14.53306632	      1.18122030	      2.20089911	     -0.47978614	      0.91432753	     -0.00003481	      4.49094112	    -10.82350874	    -19.43740403	     23.21577578	      9.40448838	      0.40519173	      6.89212893	     28.83079691	     -7.51232405	    -26.50525725	      1.89657387	      5.32951747	     23.47111775	     -2.25982457	      0.40964828	     14.29664739	      3.36563106	     -7.51232405	    -31.60038880	      0.23748207	     -4.72701717	    -14.25795145	    -13.82864193	      6.29079915	     37.73893770	     90.00000001	      0.00000000	      0.00000000	     27.45882927	    -16.41737873	    -18.47479179	     49.47694998	     90.00000001	      0.00000000	      0.00000000
      2.36000000	     15.10893741	      1.07255813	      1.94652971	     -0.47005492	      0.91537581	      0.00198831	      3.61757290	    -10.48434711	    -18.63140000	     23.92706023	      9.33853885	      0.41760598	      6.90107844	     28.95853911	     -7.51226329	    -26.84898138	      1.65654236	      5.28284421	     25.17398713	     -1.94969849	      0.43936896	     13.13804815	      3.33993960	     -7.51226329	    -32.00149749	      0.35577896	     -4.45879868	    -13.35464510	    -13.85295623	      6.25263443	     37.35318393	     90.00000001	      0.00000000	      0.00000000	     26.67164972	    -16.55074757	    -18.66586115	     50.22931624	     90.00000001	      0.00000000	      0.00000000
      2.37000000	     15.35564296	      0.68025417	      1.61648907	     -0.46021235	      0.91590563	      0.00465578	      3.03181619	     -9.68534284	    -17.96990534	     24.33074087	      9.10892571	      0.42465154	      7.29562830	     28.85093871	     -7.51190668	    -26.14462455	      1.02413050	      3.64291059	     28.23181258	     -1.81550473	      0.49273808	     11.29453092	      2.82502335	     -7.51190668	    -32.04050612	      0.62309434	     -4.25038081	    -12.04022399	    -13.78326339	      6.31921668	     36.16483525	     90.00000001	      0.00000000	      0.00000000	     25.06313658	    -16.82148451	    -19.02264496	     52.25339475	     90.00000001	      0.00000000	      0.00000000
      2.38000000	     16.02550496	      0.61234115	      1.32433579	     -0.45030980	      0.91730250	      0.00697002	      1.85371532	     -9.40070266	    -17.44874860	     24.72346333	      9.12205087	      0.43150584	      7.55908651	     29.15545953	     -7.51180489	    -26.06141140	      0.71955374	      3.28070508	     30.84847424	     -1.36689452	      0.53840744	      9.24499878	      2.82542958	     -7.51180489	    -32.52614816	      0.61479583	     -3.98746541	    -11.10622878	    -13.75514889	      6.32600805	     35.86518389	     90.00000001	      0.00000000	      0.00000000	     24.10970726	    -16.93150070	    -19.27358268	     53.13200294	     90.00000001	      0.00000000	      0.00000000
      2.39000000	     16.38634534	      0.20845812	      1.02417136	     -0.44058121	      0.91817938	      0.00957985	      1.03604524	     -8.58378207	    -16.96183138	     24.94001630	      8.81104931	      0.43528540	      7.95071744	     29.54824045	     -7.51154154	    -25.14954086	      0.10188594	      2.07891127	     34.43412696	     -1.38168092	      0.60098889	      6.96808468	      2.18936469	     -7.51154154	    -32.72552478	      0.89266334	     -3.74468352	     -9.88851644	    -13.77518639	      6.48488147	     35.19346890	     90.00000001	      0.00000000	      0.00000000	     22.66772093	    -17.05462053	    -19.64797687	     54.56600227	     90.00000001	      0.00000000	      0.00000000
      2.40000000	     16.89162443	     -0.03069793	      0.82918444	     -0.43092867	      0.91939867	      0.01193889	     -0.08091742	     -8.06252383	    -16.55905448	     25.07151554	      8.74665024	      0.43758049	      8.41175371	     29.94918798	     -7.51137675	    -24.31990877	     -0.38656598	      1.64653130	     37.97171496	     -1.18860445	      0.66273145	      4.43846729	      1.85301452	     -7.51137675	    -33.07858859	      1.03334191	     -3.57656100	     -8.81844708	    -13.77999363	      6.58651949	     34.96681449	     90.00000001	      0.00000000	      0.00000000	     21.47482126	    -17.13478013	    -19.95946077	     55.59476669	     90.00000001	      0.00000000	      0.00000000
      2.41000000	     17.24012830	     -0.37719156	      0.54303583	     -0.42148725	      0.92024970	      0.01463553	     -0.97193237	     -7.39313992	    -16.05626714	     25.19996996	      8.62548356	      0.43982245	      8.91044152	     29.96647968	     -7.51101783	    -23.08123838	     -1.00146149	      1.09158072	     41.95632132	     -1.00121836	      0.73227595	      2.15312724	      1.15204648	     -7.51101783	    -33.28897840	      1.19104179	     -3.29889782	     -7.69002819	    -13.80831958	      6.80543862	     34.71741427	     90.00000001	      0.00000000	      0.00000000	     20.23001681	    -17.15581120	    -20.34317627	     56.64023418	     90.00000001	      0.00000000	      0.00000000
      2.42000000	     17.59008235	     -0.67651804	      0.35662902	     -0.41217831	      0.92117233	      0.01710082	     -1.95538105	     -6.84045692	    -15.58734607	     25.22180788	      8.66485418	      0.44020359	      9.46734978	     29.98870006	     -7.51070201	    -21.75478106	     -1.56208028	      1.08321947	     45.92107638	     -0.70160243	      0.80147398	     -0.09885136	      0.49162066	     -7.51070201	    -33.53277470	      1.33516478	     -3.10470212	     -6.62272931	    -13.84863470	      6.99094897	     34.72846744	     90.00000001	      0.00000000	      0.00000000	     19.03036183	    -17.13690475	    -20.70093379	     57.53507097	     90.00000001	      0.00000000	      0.00000000
      2.43000000	     17.85984871	     -1.02045475	      0.17210908	     -0.40305262	      0.92192221	      0.01971220	     -2.85345041	     -6.22360077	    -15.14191244	     25.21203881	      8.64412899	      0.44003309	     10.05310179	     29.93187871	     -7.51036658	    -20.24603513	     -2.18311478	      1.35476555	     49.95650668	     -0.23412301	      0.87190552	     -1.96510673	     -0.72738201	     -7.51036658	    -33.70615281	      1.46844907	     -2.89444679	     -5.52841562	    -13.90110703	      7.27970650	     34.79681103	     90.00000001	      0.00000000	      0.00000000	     17.86143667	    -17.06751799	    -21.12728936	     58.39355794	     90.00000001	      0.00000000	      0.00000000
      2.44000000	     18.09863737	     -1.20690320	      0.01839695	     -0.39418800	      0.92269671	      0.02194518	     -3.68493700	     -5.87187591	    -14.68382330	     25.32186933	      8.73456881	      0.44194999	     10.66075251	     29.67541964	     -7.50952459	    -18.68779640	     -2.56299911	      2.64490877	     53.84089250	      0.92270020	      0.93970085	     -3.73047440	     -3.43441038	     -7.50952459	    -33.88434996	      1.47803019	     -2.77697944	     -4.45450055	    -14.05548136	      7.87567861	     35.03802727	     90.00000001	      0.00000000	      0.00000000	     16.76352076	    -16.92021850	    -21.57579168	     59.06856870	     90.00000001	      0.00000000	      0.00000000
      2.45000000	     18.36189556	     -1.36043910	     -0.04860718	     -0.38529553	      0.92346693	      0.02405030	     -4.68202810	     -5.59357625	    -14.08666679	     25.17156462	      9.07326220	      0.43932668	     11.33176593	     29.41890445	     -7.50927506	    -17.09223838	     -2.88239056	      3.19104365	     57.51309959	      1.21084122	      1.00379295	     -4.41896349	     -3.74082989	     -7.50927506	    -34.09159559	      1.46329432	     -2.71055175	     -3.46822599	    -14.12051552	      7.90100544	     35.53016970	     90.00000001	      0.00000000	      0.00000000	     15.69421328	    -16.80172779	    -21.85574264	     59.65270235	     90.00000001	      0.00000000	      0.00000000
      2.46000000	     18.36384752	     -1.72458646	     -0.15820459	     -0.37687227	      0.92382194	      0.02646594	     -5.22119493	     -4.96079933	    -13.27765219	     25.22439206	      9.16916696	      0.44024869	     11.94048049	     28.41009148	     -7.50885636	    -15.15410833	     -3.52080466	      4.40587479	     61.20058020	      2.35506739	      1.06815163	     -4.41027893	     -5.43336316	     -7.50885636	    -34.07746426	      1.59381320	     -2.49807056	     -2.41074217	    -14.27317351	      8.36248527	     35.93911079	     90.00000001	      0.00000000	      0.00000000	     14.68697316	    -16.51953871	    -22.31915719	     60.06282282	     90.00000001	      0.00000000	      0.00000000
